<?xml version="1.0" encoding="UTF-8" standalone="no"?>
<!-- Created with Inkscape (http://www.inkscape.org/) -->

<svg
   width="126.6325mm"
   height="158.19724mm"
   viewBox="0 0 126.6325 158.19724"
   version="1.1"
   id="svg1"
   inkscape:version="1.4 (e7c3feb100, 2024-10-09)"
   sodipodi:docname="embedding-projection.svg"
   xmlns:inkscape="http://www.inkscape.org/namespaces/inkscape"
   xmlns:sodipodi="http://sodipodi.sourceforge.net/DTD/sodipodi-0.dtd"
   xmlns="http://www.w3.org/2000/svg"
   xmlns:svg="http://www.w3.org/2000/svg">
  <sodipodi:namedview
     id="namedview1"
     pagecolor="#ffffff"
     bordercolor="#666666"
     borderopacity="1.0"
     inkscape:showpageshadow="2"
     inkscape:pageopacity="0.0"
     inkscape:pagecheckerboard="0"
     inkscape:deskcolor="#d1d1d1"
     inkscape:document-units="mm"
     inkscape:zoom="0.83291113"
     inkscape:cx="247.92561"
     inkscape:cy="385.39526"
     inkscape:window-width="1290"
     inkscape:window-height="1331"
     inkscape:window-x="26"
     inkscape:window-y="23"
     inkscape:window-maximized="0"
     inkscape:current-layer="layer1" />
  <defs
     id="defs1">
    <marker
       style="overflow:visible"
       id="ArrowWide"
       refX="0"
       refY="0"
       orient="auto-start-reverse"
       inkscape:stockid="Wide arrow"
       markerWidth="1"
       markerHeight="1"
       viewBox="0 0 1 1"
       inkscape:isstock="true"
       inkscape:collect="always"
       preserveAspectRatio="xMidYMid">
      <path
         style="fill:none;stroke:context-stroke;stroke-width:1;stroke-linecap:butt"
         d="M 3,-3 0,0 3,3"
         transform="rotate(180,0.125,0)"
         sodipodi:nodetypes="ccc"
         id="path7" />
    </marker>
  </defs>
  <g
     inkscape:label="Layer 1"
     inkscape:groupmode="layer"
     id="layer1"
     transform="translate(-6.5397335,-5.9565294)">
    <g
       id="g5"
       transform="translate(-36.693237,-104.62444)">
      <rect
         style="fill:#eca581;fill-opacity:1;stroke:#ffffff;stroke-width:0.394;stroke-dasharray:none;stroke-opacity:1"
         id="rect1"
         width="113.71249"
         height="21.27524"
         x="48.174965"
         y="110.77797"
         ry="4.4017735" />
      <text
         xml:space="preserve"
         style="font-size:8.46667px;line-height:1.25;font-family:'Mononoki Nerd Font';-inkscape-font-specification:'Mononoki Nerd Font';fill:#000000;fill-opacity:1;stroke:#ffffff;stroke-width:0.264583;stroke-opacity:1"
         x="74.253807"
         y="124.59059"
         id="text1"><tspan
           sodipodi:role="line"
           id="tspan1"
           style="font-style:normal;font-variant:normal;font-weight:bold;font-stretch:normal;font-size:8.46667px;font-family:'Noto sans';-inkscape-font-specification:'Noto sans';fill:#000000;fill-opacity:1;stroke:none;stroke-width:0.264583;stroke-opacity:1"
           x="74.253807"
           y="124.59059">(GNN) Encoder</tspan></text>
    </g>
    <g
       id="g29"
       transform="translate(-36.693237,-121.06562)">
      <rect
         style="fill:#de8687;fill-opacity:1;stroke:#ffffff;stroke-width:0.704988;stroke-dasharray:none;stroke-opacity:1"
         id="rect1-5"
         width="125.92751"
         height="61.508186"
         x="43.585464"
         y="159.33406"
         ry="12.725831" />
      <g
         id="g28"
         transform="translate(-29.908018,6.1352975)">
        <path
           style="fill:#000000;stroke-width:0.552939"
           d="m 98.227177,207.26216 c -0.29752,-0.31276 -0.58194,-0.7736 -0.63203,-1.02409 l -0.0911,-0.45544 h -5.8556 c -5.2701,0 -5.8556,0.0234 -5.8556,0.23408 0,0.12874 -0.22384,0.45791 -0.49742,0.73149 -0.42305,0.42305 -0.59911,0.49741 -1.17765,0.49741 -0.8799,0 -1.44494,-0.30145 -1.74322,-0.93002 -0.48791,-1.0282 -0.14453,-2.11549 0.79965,-2.53206 l 0.57046,-0.25169 v -5.82378 -5.82379 h -0.31191 c -0.42494,0 -1.22865,-0.51666 -1.58736,-1.02042 -0.38188,-0.5363 -0.42227,-2.44995 -0.0645,-3.05562 0.26638,-0.45093 0.97977,-0.95183 1.56145,-1.09634 l 0.40232,-0.1 v -5.77404 -5.77404 l -0.50067,-0.2092 c -0.86789,-0.36262 -1.28607,-1.37396 -0.96739,-2.33957 0.25671,-0.77786 0.76905,-1.11263 1.70278,-1.11263 h 0.78045 l 0.73921,-1.09545 0.73921,-1.09546 -0.40558,-0.61287 c -0.5547,-0.8382 -0.5702,-2.12892 -0.0352,-2.93164 0.57455,-0.86207 1.2819,-1.17958 2.492,-1.11861 l 1.0151,0.0512 0.72627,-1.09117 c 0.68173,-1.02426 0.71153,-1.10748 0.4858,-1.3569 -0.29841,-0.32974 -0.33816,-1.53329 -0.0674,-2.03985 0.28198,-0.52749 0.92506,-0.85198 1.68845,-0.85198 0.53773,0 0.76764,0.0881 1.18439,0.45405 0.28442,0.24973 0.51713,0.57891 0.51713,0.7315 0,0.26777 0.20416,0.27744 5.8556,0.27744 h 5.855603 l 0.0923,-0.46176 c 0.0508,-0.25396 0.34541,-0.7148 0.65469,-1.02409 0.47963,-0.47962 0.65379,-0.56139 1.1841,-0.55591 l 0.62177,0.006 -0.58519,0.21082 c -0.32186,0.11596 -0.61811,0.21283 -0.65835,0.21527 -0.0402,0.002 0.0239,0.0658 0.14247,0.1408 0.18176,0.11494 0.16029,0.19524 -0.1367,0.51137 -0.23048,0.24534 -0.38724,0.31849 -0.45335,0.21153 -0.12101,-0.19581 -0.27811,0.0154 -0.51645,0.69428 -0.13789,0.39276 -0.10963,0.57048 0.19145,1.20395 0.43377,0.91267 1.03292,1.36019 1.93744,1.4471 0.83678,0.0804 1.44101,-0.19696 1.98619,-0.91172 0.88928,-1.16591 0.50557,-2.68738 -0.84784,-3.36182 -0.74005,-0.36878 -0.74411,-0.37442 -0.26975,-0.37442 0.68593,0 1.29178,0.41094 1.62712,1.10366 0.15922,0.3289 0.28949,0.67597 0.28949,0.77126 0,0.13058 1.43705,0.17326 5.83419,0.17326 h 5.83419 l 0.18897,-0.4562 c 0.52307,-1.2628 2.65333,-1.34963 3.28207,-0.13379 0.51736,1.00044 0.0909,2.30869 -0.86517,2.65442 l -0.52218,0.18882 v 5.82256 5.82255 h 0.30925 c 0.52543,0 1.39654,0.59248 1.72168,1.17098 0.38225,0.68013 0.41724,1.99651 0.0723,2.72328 -0.27521,0.57997 -0.87242,1.04638 -1.59544,1.24602 l -0.50785,0.14022 v 5.77651 c 0,5.37274 0.0179,5.78223 0.25602,5.85833 1.00453,0.32105 1.43304,1.00176 1.31119,2.08287 -0.11096,0.98444 -0.71135,1.48359 -1.78451,1.48359 h -0.79788 l -0.74181,1.09932 -0.7418,1.09931 0.38111,0.49967 c 0.83164,1.09035 0.56356,2.91085 -0.55185,3.74759 -0.4119,0.30899 -0.63889,0.35824 -1.68803,0.36629 l -1.21216,0.009 -0.65316,0.97363 c -0.35924,0.5355 -0.65315,1.034 -0.65315,1.10779 0,0.0738 0.0984,0.32274 0.21855,0.55322 0.45033,0.86348 0.12557,2.06231 -0.67015,2.47379 -0.75231,0.38904 -1.83677,0.22524 -2.35596,-0.35583 -0.22606,-0.253 -0.41101,-0.55771 -0.41101,-0.67714 0,-0.18836 -0.77405,-0.21714 -5.84032,-0.21714 h -5.84032 l -0.0981,0.44678 c -0.054,0.24572 -0.34526,0.70657 -0.64731,1.02409 -0.4585,0.48198 -0.64352,0.57678 -1.12046,0.5741 l -0.57127,-0.003 0.60217,-0.27346 c 0.7504,-0.34077 1.37539,-1.14068 1.47572,-1.88874 0.16303,-1.21549 -0.99311,-2.51292 -2.23926,-2.51292 -0.739533,0 -1.481693,0.28239 -1.199883,0.45656 0.23289,0.14393 -0.3749,0.83391 -0.70983,0.80581 -0.34239,-0.0287 -0.59948,0.89233 -0.41758,1.49599 0.21232,0.70459 0.93236,1.46665 1.61086,1.70488 l 0.585203,0.20547 -0.644423,0.006 c -0.56231,0.006 -0.71336,-0.0661 -1.18537,-0.56224 z m -13.22433,-0.80656 c 0.36398,-0.36398 0.49741,-0.62645 0.49741,-0.97846 0,-0.50654 -0.5384,-1.44739 -0.82925,-1.44909 -0.094,-5.5e-4 -0.2915,-0.0389 -0.4389,-0.0852 -0.25027,-0.0786 -0.25106,-0.0733 -0.0119,0.0804 0.27629,0.17765 0.33937,0.52019 0.12068,0.65534 -0.0744,0.046 -0.30082,0.008 -0.50309,-0.0839 -0.49246,-0.22438 -0.92309,0.14528 -0.68578,0.58869 0.15778,0.29481 0.0694,0.74554 -0.14614,0.74554 -0.0673,0 -0.22483,-0.14631 -0.35009,-0.32514 -0.33974,-0.48506 -0.2866,0.0135 0.057,0.53473 0.62143,0.94269 1.53764,1.06955 2.29011,0.31709 z m 32.046243,0.2156 c 0.6518,-0.39744 0.88184,-1.14841 0.55974,-1.82721 -0.27007,-0.5691 -0.3864,-0.677 -1.02012,-0.94615 l -0.4389,-0.1864 0.32917,0.3098 c 0.18105,0.1704 0.32918,0.36603 0.32918,0.43475 0,0.23863 -0.48187,0.30809 -0.78869,0.11367 -0.26445,-0.16756 -0.3421,-0.16062 -0.54326,0.0485 -0.2016,0.20962 -0.20723,0.29648 -0.0399,0.61591 0.16546,0.31577 0.16224,0.39894 -0.0213,0.55127 -0.17084,0.1418 -0.26217,0.14122 -0.43561,-0.003 -0.32479,-0.26955 -0.26613,0.0475 0.0934,0.50451 0.54879,0.69767 1.24129,0.83225 1.97632,0.38406 z m -19.472633,-1.94923 c 0.25828,-1.19269 1.19062,-1.86531 2.585553,-1.86531 0.813,0 1.03139,0.0602 1.53071,0.4219 0.56415,0.40866 1.07077,1.20589 1.07077,1.68496 0,0.21046 0.58692,0.23392 5.85195,0.23392 5.26007,0 5.85194,-0.0236 5.85194,-0.23344 0,-0.37724 0.54237,-1.03001 1.02029,-1.22798 l 0.4427,-0.18337 v -4.9564 -4.9564 h -2.56023 c -2.28922,0 -2.56023,0.0257 -2.56023,0.24317 0,0.13374 -0.16365,0.52242 -0.36367,0.86374 -0.63896,1.0903 -2.21203,1.55265 -3.38648,0.99534 -0.61803,-0.29328 -1.31068,-1.10925 -1.42444,-1.67808 l -0.0848,-0.42417 h -5.855603 c -5.68,0 -5.8556,0.008 -5.8556,0.28134 0,0.15474 -0.20257,0.48392 -0.45015,0.73149 -0.39619,0.39619 -0.54965,0.45038 -1.28012,0.45204 l -0.82996,0.002 -0.70893,1.08967 -0.70893,1.08966 0.34216,0.48051 c 0.26229,0.36836 0.35384,0.71969 0.39223,1.50525 0.0431,0.8827 0.003,1.09384 -0.29156,1.52333 -0.62711,0.91517 -1.03182,1.10872 -2.35842,1.12794 l -1.19097,0.0173 -0.70686,1.04594 c -0.66793,0.98832 -0.69442,1.0637 -0.48089,1.36856 0.12429,0.17744 0.22598,0.43964 0.22598,0.58267 0,0.24485 0.34122,0.26004 5.84031,0.26004 h 5.84032 z m 0.96304,-0.95094 c 0.18197,-0.23204 0.1768,-0.23722 -0.0552,-0.0552 -0.14082,0.11043 -0.25603,0.22564 -0.25603,0.25602 0,0.12041 0.12014,0.0429 0.31126,-0.20079 z m -13.30447,-0.80465 c 1.1036,-1.66962 1.03509,-1.44833 0.6321,-2.04138 -0.75223,-1.10701 -0.60626,-2.5105 0.3618,-3.47856 0.63922,-0.63922 1.55171,-0.87563 2.47664,-0.64165 l 0.5253,0.1329 0.7466,-1.1003 0.74659,-1.1003 -0.28923,-0.55501 c -0.50127,-0.96192 -0.10668,-2.12938 0.8556,-2.53144 l 0.50067,-0.20919 v -5.78049 -5.78049 l -0.42418,-0.0848 c -0.57707,-0.11541 -1.47014,-0.87812 -1.71532,-1.46492 -0.27169,-0.65024 -0.25389,-1.72584 0.0388,-2.34256 0.2899,-0.61093 1.00679,-1.1849 1.63749,-1.31104 0.42449,-0.0849 0.46325,-0.14008 0.46325,-0.65956 v -0.56691 h -2.99912 c -2.82285,0 -2.99912,0.0159 -2.99912,0.27124 0,0.34407 -0.60672,1.00525 -1.09164,1.18962 l -0.37135,0.14119 v 5.75337 5.75338 l 0.70634,0.29843 c 0.95636,0.40404 1.48325,1.11674 1.58996,2.15064 0.13999,1.35634 -0.66387,2.58584 -1.84509,2.82209 l -0.45121,0.0902 v 5.82146 c 0,4.52029 0.0409,5.83796 0.18287,5.89526 0.10058,0.0406 0.19002,0.079 0.19874,0.0853 0.009,0.006 0.24432,-0.33408 0.52355,-0.75652 z m 32.913663,-1.98933 c -0.53498,-0.70248 -0.61272,-1.96087 -0.17676,-2.86143 0.48024,-0.99204 1.12341,-1.33035 2.52916,-1.33035 h 1.13271 l 0.66777,-0.99532 0.66776,-0.99533 -0.26433,-0.57361 -0.26435,-0.57361 -2.96255,-0.004 -2.96254,-0.004 v 4.96342 c 0,4.60937 0.0183,4.9672 0.25602,5.01637 0.18211,0.0377 0.47168,-0.26544 1.00307,-1.04994 l 0.74704,-1.10288 z m -28.870343,0.31388 c 0.75715,-0.56078 1.08199,-1.21021 1.01615,-2.03149 -0.086,-1.07225 -0.68657,-1.86642 -1.58581,-2.09689 -0.67908,-0.17404 -1.35858,-0.10331 -1.71579,0.1786 -0.12749,0.10061 -0.13898,0.18119 -0.035,0.24545 0.0948,0.0586 0.01,0.23219 -0.22023,0.44798 -0.28602,0.2687 -0.40272,0.30748 -0.49177,0.16339 -0.16878,-0.27308 -0.52253,0.64961 -0.50515,1.31758 0.0124,0.47496 0.38455,1.20072 0.85195,1.66128 0.57127,0.56291 1.99784,0.62352 2.68566,0.1141 z m 32.331503,-0.0473 c 0.66838,-0.49416 1.10124,-1.45588 0.97953,-2.17631 -0.13256,-0.78462 -0.95554,-1.71987 -1.68663,-1.91673 -0.60677,-0.16339 -1.81594,0.0385 -1.99836,0.33366 -0.0517,0.0837 -0.0225,0.10717 0.0656,0.0528 0.32752,-0.20241 0.36274,0.25401 0.0398,0.51552 -0.40562,0.32846 -0.65386,0.34782 -0.53645,0.0418 0.0479,-0.12487 0.031,-0.1924 -0.0374,-0.15006 -0.22373,0.13827 -0.49663,1.38736 -0.40413,1.84982 0.13055,0.6528 0.82723,1.55319 1.33668,1.72755 0.69433,0.23764 1.71523,0.11099 2.24147,-0.27808 z m -35.066843,-3.6171 c 0.18198,-0.23204 0.1768,-0.23721 -0.0552,-0.0552 -0.14081,0.11043 -0.25602,0.22564 -0.25602,0.25602 0,0.12041 0.12014,0.0429 0.31126,-0.20079 z m 22.613503,-2.24511 c 0.73633,-0.35645 1.36081,-1.28567 1.36081,-2.02487 0,-1.02499 -0.8751,-2.09347 -1.87904,-2.29426 -0.4728,-0.0946 -1.72286,0.17486 -1.86294,0.40152 -0.0423,0.0685 0.0252,0.0853 0.15006,0.0374 0.30596,-0.11741 0.2866,0.13082 -0.0418,0.53644 -0.26151,0.32296 -0.71794,0.28773 -0.51552,-0.0398 0.0544,-0.088 0.0309,-0.11723 -0.0528,-0.0655 -0.23501,0.14525 -0.4872,1.33981 -0.38779,1.83688 0.10706,0.53527 0.83531,1.39067 1.44443,1.69659 0.59585,0.29926 1.03495,0.27849 1.78461,-0.0844 z m -16.067343,-1.01395 c 0.76972,-0.76973 0.57252,-1.89665 -0.42189,-2.41088 -0.57508,-0.29738 -0.63995,-0.27497 -0.27126,0.0937 0.29086,0.29087 0.29479,0.32213 0.0572,0.4551 -0.17029,0.0953 -0.37456,0.0884 -0.61425,-0.0208 -0.49248,-0.22439 -0.87357,0.12067 -0.63193,0.57218 0.0888,0.16587 0.12041,0.43071 0.0703,0.58854 -0.0738,0.2324 -0.14484,0.25818 -0.37386,0.13563 -0.15552,-0.0832 -0.28277,-0.25875 -0.28277,-0.39003 0,-0.13127 -0.0438,-0.19485 -0.0974,-0.14129 -0.0536,0.0536 0.0616,0.41145 0.25593,0.7953 0.3463,0.68402 0.36823,0.69872 1.10286,0.739 0.67129,0.0368 0.7973,-0.007 1.20706,-0.41642 z m 32.182313,0.0731 c 0.8769,-0.73785 0.67624,-1.93826 -0.42198,-2.52446 -0.59123,-0.31557 -0.81943,-0.25165 -0.28752,0.0805 0.16093,0.1005 0.2926,0.24097 0.2926,0.31214 0,0.2234 -0.44744,0.31273 -0.75144,0.15003 -0.21381,-0.11442 -0.34999,-0.10726 -0.51163,0.0269 -0.21015,0.17442 -0.20789,0.34963 0.0113,0.87929 0.12447,0.30072 -0.3151,0.49226 -0.59555,0.25951 -0.30266,-0.25118 -0.24166,0.0109 0.12826,0.55117 0.35197,0.514 0.50575,0.59108 1.23232,0.61764 0.30135,0.011 0.61841,-0.11275 0.90361,-0.35273 z m -19.63916,-1.78821 c 0.27554,-1.17023 1.30788,-1.93846 2.60487,-1.93846 1.24349,0 2.29857,0.78714 2.51665,1.87752 l 0.0927,0.46326 h 2.54194 2.54194 v -0.5852 c 0,-0.44099 -0.0582,-0.58519 -0.23611,-0.58519 -0.44063,0 -1.38625,-0.64495 -1.70733,-1.16447 -0.23579,-0.38152 -0.32028,-0.75038 -0.32194,-1.40552 -0.003,-1.1798 0.48173,-1.94994 1.52996,-2.43082 l 0.73542,-0.33738 v -5.73621 -5.73621 l -0.5346,-0.25368 c -0.36735,-0.17432 -0.60764,-0.42774 -0.76808,-0.81002 l -0.23346,-0.55634 -5.79221,-0.001 -5.79221,-0.001 -0.17303,0.57752 c -0.18864,0.62961 -0.88696,1.41832 -1.44295,1.62971 -0.59959,0.22796 -1.668433,0.1502 -2.328693,-0.16943 -0.6384,-0.30904 -1.11985,-0.91487 -1.2997,-1.63548 l -0.10042,-0.40239 h -2.54436 -2.54436 v 0.56891 c 0,0.53606 0.03,0.57455 0.5202,0.6665 1.41063,0.26464 2.26301,2.25011 1.58205,3.68513 -0.29328,0.61803 -1.10925,1.31068 -1.67808,1.42444 l -0.42417,0.0848 v 5.7805 5.78049 l 0.49292,0.20596 c 0.53697,0.22436 0.97006,0.73653 0.97006,1.14721 0,0.24485 0.3416,0.26004 5.84916,0.26004 h 5.849153 z m -2.4089,-6.04809 c -0.81566,-0.24826 -1.62491,-0.87647 -2.04117,-1.58453 -0.33297,-0.56638 -0.39379,-0.83928 -0.39379,-1.76707 0,-0.92778 0.0608,-1.20068 0.39379,-1.76707 0.73685,-1.25339 2.28589,-1.93562 3.66966,-1.61621 1.00494,0.23197 1.63009,0.64762 2.19287,1.45803 0.44343,0.63854 0.47342,0.76077 0.47342,1.92997 0,1.19601 -0.0217,1.27845 -0.51801,1.96942 -0.84256,1.17298 -2.48294,1.77126 -3.77677,1.37746 z m 2.31378,-0.62444 c 0.40356,-0.20071 0.84995,-0.59951 1.17039,-1.04562 0.46689,-0.64999 0.51796,-0.81547 0.51752,-1.67682 -4.3e-4,-0.83858 -0.0584,-1.03918 -0.47342,-1.63738 -1.08382,-1.56231 -2.87493,-1.93737 -4.40776,-0.92299 -1.25418,0.82998 -1.65573,2.69204 -0.86909,4.03012 0.61898,1.05289 1.98383,1.81036 2.97109,1.64892 0.24139,-0.0395 0.73246,-0.21777 1.09127,-0.39623 z m 17.16476,6.50004 c 0.16962,-0.36822 0.43911,-0.65163 0.76806,-0.80773 l 0.50676,-0.24048 v -5.77652 c 0,-5.37425 -0.0179,-5.78194 -0.25602,-5.8544 -1.34015,-0.40768 -2.01388,-1.28342 -2.00697,-2.60878 0.004,-0.69572 0.083,-1.00602 0.36574,-1.43029 0.3654,-0.54824 1.2281,-1.14061 1.66115,-1.14061 0.21332,0 0.2361,-0.56303 0.2361,-5.83629 0,-4.88305 -0.0336,-5.8492 -0.20596,-5.91533 -0.13651,-0.0524 -0.453,0.29501 -0.93857,1.03026 l -0.73261,1.1093 0.3502,0.52919 c 0.44065,0.66587 0.56542,1.27967 0.43581,2.14397 -0.0799,0.53322 -0.23682,0.81333 -0.73375,1.31025 -0.70993,0.70993 -1.53229,0.9377 -2.52212,0.69856 l -0.554,-0.13385 -0.74387,1.10162 -0.74389,1.10161 0.2867,0.48592 c 0.21343,0.36173 0.26775,0.65405 0.21256,1.1437 -0.0842,0.74703 -0.40734,1.18114 -1.09625,1.47269 l -0.47547,0.20122 v 5.77404 5.77404 l 0.40232,0.0947 c 0.68465,0.16121 1.2772,0.60287 1.61485,1.20365 0.4368,0.77718 0.443,2.03924 0.0137,2.80297 -0.32513,0.5785 -1.19625,1.17098 -1.72168,1.17098 -0.26326,0 -0.30925,0.087 -0.30925,0.58519 v 0.5852 l 2.96254,-0.004 2.96255,-0.004 z m -31.623693,-0.26641 c 0.18197,-0.23204 0.1768,-0.23721 -0.0552,-0.0552 -0.14081,0.11043 -0.25602,0.22564 -0.25602,0.25602 0,0.12041 0.12014,0.0429 0.31126,-0.20078 z m -6.06253,-0.86408 c 1.24078,-0.58879 1.67233,-2.27723 0.8557,-3.34789 -0.52058,-0.68251 -1.52326,-1.1497 -2.17055,-1.01135 -0.55592,0.11882 -0.86394,0.33839 -0.74491,0.53099 0.11156,0.18049 -0.36435,0.70569 -0.63946,0.70569 -0.14191,0 -0.18007,-0.085 -0.11496,-0.25602 0.061,-0.16026 0.047,-0.2013 -0.0375,-0.10972 -0.19608,0.21249 -0.46753,1.08299 -0.46753,1.49928 0,1.04551 1.18559,2.23133 2.23089,2.23133 0.31774,0 0.8075,-0.10904 1.08835,-0.24231 z m 32.377023,-0.0675 c 1.11684,-0.62771 1.47499,-1.99851 0.81595,-3.12309 -0.3214,-0.54842 -0.51577,-0.69188 -1.69059,-1.2478 -0.26324,-0.12456 -1.6944,0.44293 -1.46875,0.58239 0.20637,0.12755 0.0476,0.53883 -0.25243,0.65397 -0.12817,0.0492 -0.27949,0.0142 -0.33629,-0.0777 -0.0603,-0.0976 -0.20696,0.10441 -0.35239,0.48522 -0.7347,1.92378 1.46464,3.7498 3.2845,2.72699 z M 93.384977,179.03311 c 0.74906,-0.59747 1.07377,-1.283 0.9748,-2.05795 -0.19731,-1.54485 -1.83729,-2.48366 -3.22702,-1.84731 -0.24139,0.11053 -0.35661,0.20631 -0.25603,0.21285 0.4629,0.0301 -0.16571,0.81175 -0.65534,0.81492 -0.32968,0.002 -0.54351,0.77867 -0.41054,1.49087 0.11755,0.62952 1.13979,1.73146 1.7149,1.8486 0.61281,0.12481 1.35467,-0.0595 1.85923,-0.46198 z m 32.214803,0.0498 c 1.40404,-0.90615 1.30135,-3.03769 -0.18663,-3.87398 -0.67868,-0.38144 -1.29992,-0.40719 -2.05814,-0.0853 -0.5264,0.22348 -0.79734,0.46155 -0.31433,0.2762 0.3715,-0.14256 0.19243,0.38945 -0.224,0.66553 -0.34371,0.22786 -0.35264,0.22481 -0.26972,-0.0922 0.0471,-0.18035 0.0621,-0.32791 0.0331,-0.32791 -0.0569,0 -0.41786,0.78223 -0.56412,1.22263 -0.15447,0.46511 0.19446,1.39025 0.7241,1.9199 0.86057,0.86056 1.82877,0.9605 2.85968,0.29517 z m -35.106703,-3.54743 c 0.18197,-0.23204 0.1768,-0.23721 -0.0552,-0.0552 -0.14082,0.11043 -0.25603,0.22564 -0.25603,0.25602 0,0.12041 0.12014,0.0429 0.31126,-0.20078 z m 10.408163,-0.17012 c 0.55598,-0.21139 1.25431,-1.00011 1.44295,-1.62972 0.49346,-1.64703 -1.16507,-3.25001 -2.869033,-2.77294 -0.3681,0.10306 -0.71066,0.25436 -0.76125,0.33622 -0.0506,0.0819 -0.0205,0.10467 0.0668,0.0507 0.30709,-0.18979 0.33249,0.19206 0.0327,0.49183 -0.30663,0.30663 -0.67191,0.27203 -0.49297,-0.0467 0.065,-0.11572 0.048,-0.12445 -0.0513,-0.0265 -0.0816,0.0805 -0.2491,0.45103 -0.37228,0.82347 -0.21767,0.65814 -0.21308,0.69895 0.16342,1.45146 0.57648,1.15218 1.79564,1.71956 2.840953,1.32213 z m -16.424363,-0.74424 c 0.0677,0 0.32565,-0.20257 0.57323,-0.45015 0.52511,-0.52512 0.59967,-1.22697 0.19751,-1.8592 -0.3127,-0.49159 -0.47486,-0.61153 -0.8307,-0.61439 -0.26503,-0.002 -0.2663,0.0115 -0.0259,0.27711 0.24063,0.26589 0.23847,0.2839 -0.045,0.37385 -0.16376,0.052 -0.4304,0.0235 -0.59252,-0.0633 -0.23374,-0.12509 -0.3507,-0.10183 -0.56487,0.11235 -0.23823,0.23823 -0.24583,0.30665 -0.0644,0.5799 0.14087,0.21216 0.16199,0.38791 0.067,0.55762 -0.12715,0.22719 -0.16467,0.22183 -0.451,-0.0645 -0.39227,-0.39226 -0.39876,-0.23644 -0.0163,0.39087 0.30235,0.49592 1.08727,0.94862 1.43494,0.82761 0.10717,-0.0373 0.25023,-0.0678 0.31792,-0.0678 z m 32.185723,0 c 0.0677,0 0.32082,-0.16637 0.56247,-0.36971 0.61628,-0.51856 0.70995,-1.09003 0.29863,-1.82188 -0.1818,-0.32345 -0.37885,-0.58809 -0.43793,-0.58809 -0.0591,0 -0.21918,-0.0429 -0.35582,-0.0953 -0.21159,-0.0812 -0.22461,-0.0508 -0.0878,0.20483 0.2001,0.37387 -0.0999,0.53424 -0.62547,0.33441 -0.43451,-0.1652 -0.88845,0.23231 -0.66635,0.58353 0.17715,0.28013 0.18073,0.87445 0.006,0.87445 -0.0747,0 -0.23931,-0.10346 -0.36575,-0.2299 -0.28648,-0.28648 -0.29234,-0.16894 -0.018,0.36151 0.22772,0.44035 1.05394,0.9318 1.37283,0.81658 0.10715,-0.0387 0.25023,-0.0704 0.31794,-0.0704 z m -24.871503,-6.71409 c 0,-5.80257 0.006,-5.78209 -1.16931,-4.04046 -0.40291,0.59709 -0.73257,1.11859 -0.73257,1.15889 0,0.0403 0.17037,0.32306 0.3786,0.62837 0.33542,0.49181 0.37284,0.67197 0.32814,1.57985 -0.0612,1.24324 -0.39807,1.79886 -1.3783,2.27338 -0.55821,0.27023 -0.81949,0.30917 -1.57169,0.23424 l -0.90217,-0.0899 -0.68978,1.05538 c -0.64304,0.98387 -0.67526,1.07755 -0.47547,1.38246 0.11787,0.17989 0.21431,0.42814 0.21431,0.55167 0,0.19462 0.40022,0.22459 2.99912,0.22459 h 2.99912 z m 5.77434,4.55618 c 0.17985,-0.7206 0.6613,-1.32643 1.2997,-1.63548 1.584653,-0.76711 3.426303,0.0194 3.829663,1.63548 l 0.10041,0.40232 h 5.82023 5.82022 l 0.086,-0.34283 c 0.0473,-0.18856 0.26094,-0.51773 0.47471,-0.73149 0.33003,-0.33004 0.51481,-0.38866 1.22503,-0.38866 h 0.83638 l 0.69389,-1.04353 0.69391,-1.04352 -0.39741,-0.78545 c -0.33378,-0.65971 -0.38741,-0.92365 -0.33496,-1.6487 0.11688,-1.61573 1.15193,-2.44586 2.89424,-2.3212 l 0.97282,0.0696 0.68662,-1.04928 0.68662,-1.04927 -0.25645,-0.61015 -0.25645,-0.61014 -5.79708,-0.002 -5.79708,-0.001 -0.0927,0.46325 c -0.11821,0.59103 -0.71506,1.37596 -1.26091,1.65823 -0.56523,0.29229 -1.94893,0.27998 -2.58745,-0.023 -0.54286,-0.2576 -1.13443,-1.03175 -1.29612,-1.69614 l -0.0979,-0.4024 h -5.836093 c -5.66094,0 -5.83608,0.008 -5.83608,0.28138 0,0.38962 -0.65456,1.13058 -1.09681,1.24158 l -0.36617,0.0919 v 4.97136 4.97137 h 2.54436 2.54437 z m -14.53359,-0.43889 c 0.18197,-0.23204 0.1768,-0.23722 -0.0552,-0.0552 -0.14081,0.11043 -0.25602,0.22564 -0.25602,0.25602 0,0.12041 0.12013,0.0429 0.31125,-0.20079 z m 6.26982,-3.01677 c 2.33438,-1.54482 0.34783,-5.05139 -2.24741,-3.96703 -0.50157,0.20957 -0.77694,0.4494 -0.31046,0.27039 0.28271,-0.10848 0.27943,0.0889 -0.008,0.49974 -0.28343,0.40466 -0.56384,0.42444 -0.46136,0.0325 0.11876,-0.45414 -0.003,-0.34673 -0.28816,0.25425 -0.386,0.81345 -0.31223,1.55857 0.23057,2.32864 0.25327,0.35931 0.42271,0.71441 0.37654,0.78911 -0.0462,0.0747 0.002,0.10397 0.10653,0.065 0.10476,-0.0389 0.38798,-0.008 0.62937,0.0688 0.62441,0.1986 1.345,0.0738 1.97267,-0.34153 z m 32.213853,0.0358 c 1.25723,-0.89523 1.44602,-2.45984 0.42057,-3.4853 -0.17092,-0.17092 -0.28028,-0.36008 -0.24301,-0.42037 0.0373,-0.0603 -0.0426,-0.11861 -0.17754,-0.12961 -0.1349,-0.011 -0.5174,-0.0657 -0.84999,-0.12148 -0.68955,-0.1157 -1.83476,0.17475 -1.50139,0.38079 0.15542,0.0961 0.1266,0.19593 -0.13763,0.4772 -0.1838,0.19564 -0.44131,0.34724 -0.57223,0.33687 -0.31178,-0.0247 -0.54155,0.75503 -0.41743,1.41658 0.14956,0.79723 0.85079,1.65039 1.50278,1.82839 0.7066,0.1929 1.45876,0.0851 1.97587,-0.28307 z m -2.78682,-3.60251 c 0.18197,-0.23204 0.17679,-0.23721 -0.0552,-0.0552 -0.14081,0.11043 -0.25603,0.22564 -0.25603,0.25602 0,0.12041 0.12014,0.0429 0.31127,-0.20079 z m -26.741283,-2.89102 c 0.61371,-0.001 0.76523,-0.0652 1.13382,-0.47778 0.62999,-0.70508 0.59641,-1.4615 -0.0917,-2.06567 -0.55412,-0.48652 -1.00236,-0.63051 -0.61645,-0.19802 0.19956,0.22365 0.20155,0.28069 0.0157,0.45116 -0.17775,0.16305 -0.26828,0.15874 -0.55055,-0.0262 -0.30262,-0.19829 -0.36168,-0.19747 -0.56697,0.008 -0.16771,0.16771 -0.19406,0.32152 -0.0982,0.57355 0.13672,0.35962 0.0495,0.78582 -0.16082,0.78582 -0.0673,0 -0.23093,-0.14813 -0.36363,-0.32917 l -0.24129,-0.32917 0.10351,0.36574 c 0.0569,0.20117 0.23727,0.51195 0.40076,0.69063 0.25889,0.28296 0.27088,0.35739 0.0929,0.57671 -0.17751,0.21874 -0.17552,0.23372 0.0151,0.11401 0.1207,-0.0758 0.53821,-0.13854 0.92782,-0.13943 z m 33.018243,-0.14715 c 0.43419,-0.22452 0.873,-0.88512 0.873,-1.31421 0,-0.42909 -0.43881,-1.08969 -0.873,-1.31421 -0.54918,-0.284 -0.67041,-0.28146 -0.38098,0.008 0.12645,0.12644 0.2299,0.28398 0.2299,0.35009 0,0.23703 -0.46831,0.29379 -0.75679,0.0917 -0.25654,-0.17968 -0.3268,-0.175 -0.54985,0.0366 -0.21494,0.20393 -0.22767,0.30093 -0.0798,0.60836 0.18179,0.37797 0.14166,0.7315 -0.083,0.7315 -0.0706,0 -0.2719,-0.14813 -0.44728,-0.32918 -0.27746,-0.28643 -0.26623,-0.23043 0.0865,0.43122 0.49128,0.92147 1.12217,1.1444 1.98132,0.70012 z m -18.41974,-2.96007 c 0.18197,-0.23204 0.1768,-0.23721 -0.0552,-0.0552 -0.14081,0.11043 -0.25602,0.22564 -0.25602,0.25602 0,0.12041 0.12013,0.0429 0.31125,-0.20078 z"
           id="path2-1"
           sodipodi:nodetypes="cscsssssscccsssscccssscccssscssssssscssscscsssssssssssscssscccsssscscsscccssscssssssscssccsssscssccccssscsssssssscsscssscsscscccsssssscccssssscsssccccsscscssssccssssssssscccsscccssssscssscccssscssssscsscccccccsssccssssssssssscssscccsssccsssssssssssssssssssssssssssscsssssssssssssssscccssssscccsscccsssscccsssscccssscsssssssssssssssssscscsccssssscsssscccssscccsssssccccsssssssssssssssssssssssssssscssscssssssssccsssssssssssssssssssscssssssssssscsssssssssssccssssssscsssscsssscccssscccssscccccccsssscssscccccssssssssssscsssssssssssssssssssssssssssssssscsssssssssssssssssssssss" />
        <path
           style="fill:#f1e89f;fill-opacity:1;stroke:#ffffff;stroke-width:0.364286;stroke-linecap:round;stroke-linejoin:bevel;stroke-miterlimit:3.1;stroke-dasharray:none;stroke-opacity:1"
           d="m 376.84009,662.96311 c -1.64289,-0.43527 -3.12834,-1.3371 -4.36942,-2.65272 -0.83417,-0.88426 -1.30596,-1.58431 -1.99867,-2.96569 -0.79631,-1.58795 -1.00168,-2.24416 -0.93355,-2.98293 0.0995,-1.07874 1.36525,-4.45437 1.91005,-5.09387 l 0.17018,-0.19976 -0.0722,0.19976 c -0.25402,0.70264 -0.1236,1.05017 0.39275,1.04655 1.00745,-0.007 2.35398,-1.3472 2.35619,-2.34498 0.001,-0.45247 -0.12307,-0.58087 -0.50915,-0.52689 -0.18486,0.0258 -0.41476,0.0811 -0.51089,0.12284 -0.10452,0.0453 -0.17479,0.0331 -0.17479,-0.0305 0,-0.29208 2.02179,-1.13012 3.53325,-1.46455 1.16526,-0.25783 3.00968,-0.16874 4.15749,0.20081 1.04435,0.33624 1.63564,0.62915 2.57095,1.27359 1.49967,1.03331 2.72548,2.67082 3.32781,4.44551 0.3078,0.90692 0.33062,1.06499 0.3351,2.32156 0.004,0.99927 -0.0415,1.51646 -0.17394,1.99759 -0.41467,1.50607 -1.58212,3.31739 -3.02697,4.69639 -1.63308,1.55866 -2.85213,2.09825 -4.88073,2.16035 -1.02383,0.0313 -1.33047,0.002 -2.10344,-0.20305 z"
           id="path11"
           transform="scale(0.26458333)" />
        <path
           style="fill:#f1e89f;fill-opacity:1;stroke:#ffffff;stroke-width:1.11682;stroke-linecap:round;stroke-linejoin:bevel;stroke-miterlimit:3.1;stroke-dasharray:none;stroke-opacity:1"
           d="m 436.95896,723.48786 c -4.94204,-2.03818 -7.13322,-6.47427 -5.40455,-10.94161 0.49128,-1.26962 0.60897,-1.37057 1.49711,-1.28411 1.31346,0.12785 2.3341,-0.88417 2.15086,-2.13267 -0.15267,-1.04022 0.34169,-1.39388 3.08339,-2.20585 l 1.63301,-0.48363 2.19459,1.09476 c 2.66779,1.33082 3.68833,2.24468 4.74164,4.24598 1.08503,2.06158 1.14839,5.47919 0.13699,7.39016 -0.8615,1.62775 -2.27128,3.02894 -3.86771,3.84414 -1.51797,0.77513 -4.81856,1.02826 -6.16533,0.47283 z"
           id="path12"
           transform="scale(0.26458333)" />
        <path
           style="fill:#f1e89f;fill-opacity:1;stroke:#ffffff;stroke-width:1.11682;stroke-linecap:round;stroke-linejoin:bevel;stroke-miterlimit:3.1;stroke-dasharray:none;stroke-opacity:1"
           d="m 344.56323,613.78912 c 0.086,-0.44968 -0.24383,-1.17156 -0.9696,-2.12238 -1.23967,-1.62406 -1.46442,-2.45564 -0.39117,-1.44738 0.93905,0.88219 1.38383,0.8396 1.76739,-0.16923 0.22248,-0.58517 0.2158,-1.23885 -0.0223,-2.18457 -0.30919,-1.2279 -0.27855,-1.41474 0.33998,-2.07314 l 0.6798,-0.72361 1.03661,0.61161 c 1.3088,0.77221 1.76356,0.76828 2.55392,-0.0221 0.59238,-0.59238 0.6019,-0.68221 0.14605,-1.37793 -0.78342,-1.19564 0.033,-0.86783 1.68341,0.67593 2.59229,2.42479 2.73077,4.70742 0.4474,7.37503 -1.24299,1.45215 -2.19856,1.81838 -5.23269,2.00547 -2.108,0.12999 -2.16537,0.11458 -2.03876,-0.54772 z"
           id="path13"
           transform="scale(0.26458333)" />
        <path
           style="fill:#f2c788;fill-opacity:1;stroke:#ffffff;stroke-width:1.11682;stroke-linecap:round;stroke-linejoin:bevel;stroke-miterlimit:3.1;stroke-dasharray:none;stroke-opacity:1"
           d="m 345.70894,735.90403 c -0.87674,-0.21359 -1.6623,-0.98722 -2.32914,-2.29378 -0.72585,-1.42218 -0.72433,-1.56557 0.0125,-1.17125 1.54983,0.82944 2.20214,-0.26696 1.54827,-2.60235 -0.55488,-1.98186 -0.12927,-2.39722 2.18156,-2.12902 0.96719,0.11226 2.04391,0.11353 2.39271,0.003 0.74395,-0.23612 0.83357,-1.14437 0.16746,-1.69719 -0.72121,-0.59855 -0.3054,-0.70458 0.70799,-0.18054 2.20065,1.138 3.49738,3.86715 2.85546,6.00971 -0.42227,1.40941 -1.87247,3.18943 -3.12699,3.83817 -0.81996,0.42402 -3.1101,0.54006 -4.40977,0.22343 z"
           id="path14"
           transform="scale(0.26458333)" />
        <path
           style="fill:#f2c788;fill-opacity:1;stroke:#ffffff;stroke-width:1.11682;stroke-linecap:round;stroke-linejoin:bevel;stroke-miterlimit:3.1;stroke-dasharray:none;stroke-opacity:1"
           d="m 467.71723,613.92989 c -0.96252,-0.57167 -3.04644,-3.13487 -3.04644,-3.74708 0,-0.12672 0.34342,-0.005 0.76316,0.26964 1.53282,1.00435 2.09315,-0.12933 1.32731,-2.68546 -0.32491,-1.08445 -0.29621,-1.26185 0.30065,-1.85872 0.65278,-0.65278 0.67605,-0.65401 2.17411,-0.11531 1.173,0.4218 1.65733,0.46796 2.14902,0.20482 0.75822,-0.40579 0.79906,-0.86592 0.15807,-1.78107 -0.55509,-0.7925 -0.41435,-0.84133 0.72154,-0.25033 1.20009,0.62441 2.08604,1.67313 2.82533,3.3444 0.54417,1.23019 0.59499,1.62949 0.31106,2.44397 -1.25101,3.58864 -5.12611,5.69425 -7.68381,4.17514 z"
           id="path15"
           transform="scale(0.26458333)" />
        <path
           style="fill:#f2c788;fill-opacity:1;stroke:#ffffff;stroke-width:1.11682;stroke-linecap:round;stroke-linejoin:bevel;stroke-miterlimit:3.1;stroke-dasharray:none;stroke-opacity:1"
           d="m 344.71176,677.65775 c -1.5443,-0.96804 -3.66916,-3.33713 -4.51437,-5.03326 -1.36995,-2.74913 -0.75928,-6.09963 1.22464,-6.71917 1.70193,-0.53147 3.23818,-2.35227 2.61659,-3.10124 -0.48401,-0.5832 1.70677,-1.39459 3.76543,-1.39459 4.44811,0 8.0434,3.19649 8.6556,7.6955 0.39857,2.92905 -1.84649,6.64429 -4.96716,8.2199 -2.08799,1.05421 -5.37274,1.21546 -6.78073,0.33286 z"
           id="path16"
           transform="scale(0.26458333)" />
        <path
           style="fill:#f2c788;fill-opacity:1;stroke:#ffffff;stroke-width:1.11682;stroke-linecap:round;stroke-linejoin:bevel;stroke-miterlimit:3.1;stroke-dasharray:none;stroke-opacity:1"
           d="m 437.55428,781.4884 c -1.12907,-0.52235 -3.5043,-2.86903 -3.5043,-3.46217 0,-0.13449 0.34392,-0.0878 0.76428,0.1037 0.6315,0.28773 0.87088,0.25175 1.37793,-0.20713 0.73174,-0.66222 0.77579,-1.40216 0.15495,-2.60273 -0.4282,-0.82805 -0.41292,-0.93897 0.22966,-1.66786 l 0.68836,-0.78082 1.42384,0.52136 c 1.15632,0.42339 1.57343,0.45319 2.22001,0.15859 0.99409,-0.45294 0.99455,-0.70556 0.003,-1.88344 -0.93207,-1.1077 -0.82035,-1.15264 0.8046,-0.32365 1.71841,0.87667 2.83377,2.69073 2.97854,4.84442 0.0999,1.48679 -0.003,1.91389 -0.72155,3.00618 -1.52726,2.3202 -4.25538,3.29486 -6.41975,2.29355 z"
           id="path17"
           transform="scale(0.26458333)" />
        <path
           style="fill:#de8687;fill-opacity:1;stroke:#ffffff;stroke-width:1.11682;stroke-linecap:round;stroke-linejoin:bevel;stroke-miterlimit:3.1;stroke-dasharray:none;stroke-opacity:1"
           d="m 314.38585,723.20801 c -3.03067,-1.46935 -5.39193,-4.8374 -5.35783,-7.64226 0.023,-1.89566 0.95606,-4.72465 1.40887,-4.27184 0.53641,0.53641 1.03868,0.39505 2.19092,-0.61663 0.76698,-0.67342 1.08239,-1.2065 1.08239,-1.82939 0,-1.18706 1.4135,-1.9334 3.67449,-1.94015 1.33635,-0.004 2.08418,0.20966 3.62123,1.03456 5.37403,2.88412 6.55805,8.77311 2.64006,13.13087 -2.37227,2.63853 -6.3363,3.55241 -9.26013,2.13484 z"
           id="path18"
           transform="scale(0.26458333)" />
        <path
           style="fill:#de8687;fill-opacity:1;stroke:#ffffff;stroke-width:1.11682;stroke-linecap:round;stroke-linejoin:bevel;stroke-miterlimit:3.1;stroke-dasharray:none;stroke-opacity:1"
           d="m 466.96735,677.68515 c -3.10405,-1.48469 -5.68415,-5.13152 -5.64606,-7.98039 0.0179,-1.33966 1.43217,-5.07971 1.48676,-3.9318 0.0385,0.81009 0.48755,0.65437 1.84985,-0.64156 1.22033,-1.16087 1.60243,-2.31536 0.85496,-2.58319 -0.21052,-0.0754 0.63237,-0.44972 1.87308,-0.83175 2.00583,-0.61761 2.43419,-0.65468 3.86502,-0.33447 4.20876,0.94188 6.96263,4.32257 6.93051,8.508 -0.0179,2.3311 -0.74258,4.14626 -2.26195,5.66563 -2.38431,2.38432 -6.41493,3.34311 -8.95217,2.12953 z"
           id="path19"
           transform="scale(0.26458333)" />
        <path
           style="fill:#de8687;fill-opacity:1;stroke:#ffffff;stroke-width:1.11682;stroke-linecap:round;stroke-linejoin:bevel;stroke-miterlimit:3.1;stroke-dasharray:none;stroke-opacity:1"
           d="m 391.0179,703.85083 c -3.33609,-1.0452 -6.94451,-4.35931 -8.10775,-7.44647 -0.96266,-2.55482 -0.7827,-6.60283 0.40112,-9.02246 1.03116,-2.10761 3.3463,-4.31721 5.65935,-5.40133 1.49354,-0.70002 2.15695,-0.82065 4.51323,-0.82065 2.50182,0 2.95435,0.0945 4.7988,1.00256 2.30975,1.13708 4.72922,3.55293 5.92853,5.91966 0.64731,1.27741 0.74903,1.89742 0.74903,4.56561 0,3.42566 -0.18895,3.99572 -2.19763,6.63015 -2.88249,3.78046 -7.96175,5.75813 -11.74468,4.57293 z"
           id="path20"
           transform="scale(0.26458333)" />
        <path
           style="fill:#c26d93;fill-opacity:1;stroke:#ffffff;stroke-width:1.11682;stroke-linecap:round;stroke-linejoin:bevel;stroke-miterlimit:3.1;stroke-dasharray:none;stroke-opacity:1"
           d="m 452.72867,640.00326 c -2.47948,-0.52068 -4.41276,-2.25982 -5.74366,-5.16689 -1.33553,-2.91718 -0.64193,-7.10977 1.1762,-7.10977 0.29873,0 1.05101,-0.47897 1.67172,-1.06438 0.90111,-0.84985 1.09043,-1.21637 0.93931,-1.81848 -0.23204,-0.92451 -0.0341,-1.05517 2.13328,-1.40792 2.52706,-0.41128 6.51727,0.19637 6.89874,1.05059 0.15656,0.35058 0.81544,1.30512 1.46417,2.12119 1.89224,2.38035 2.3383,4.84495 1.38383,7.64615 -0.6149,1.80463 -2.78381,4.24018 -4.48503,5.0364 -1.53144,0.71676 -3.92598,1.03073 -5.43856,0.71311 z"
           id="path21"
           transform="scale(0.26458333)" />
        <path
           style="fill:#c26d93;fill-opacity:1;stroke:#ffffff;stroke-width:1.11682;stroke-linecap:round;stroke-linejoin:bevel;stroke-miterlimit:3.1;stroke-dasharray:none;stroke-opacity:1"
           d="m 451.5329,761.62342 c -1.03868,-0.19593 -3.75192,-3.02393 -4.55745,-4.75022 -0.83886,-1.79771 -0.86789,-4.29585 -0.0774,-6.66336 0.30927,-0.92628 0.57644,-1.443 0.59371,-1.14828 0.0515,0.87827 1.22687,0.62649 2.3586,-0.50524 1.15206,-1.15207 1.30846,-1.84092 0.51836,-2.28309 -0.79763,-0.44638 1.73285,-1.08031 4.35035,-1.08983 2.59609,-0.009 4.01261,0.64069 5.93142,2.72235 2.42243,2.62803 3.03268,5.19026 1.97613,8.29715 -0.72757,2.13948 -3.42477,4.79567 -5.36383,5.28225 -1.39756,0.35071 -4.24008,0.4193 -5.72985,0.13827 z"
           id="path22"
           transform="scale(0.26458333)" />
        <path
           style="fill:#c26d93;fill-opacity:1;stroke:#ffffff;stroke-width:1.11682;stroke-linecap:round;stroke-linejoin:bevel;stroke-miterlimit:3.1;stroke-dasharray:none;stroke-opacity:1"
           d="m 315.70055,781.63448 c -1.40578,-0.65105 -3.8276,-3.45698 -3.8276,-4.43465 0,-0.24927 0.2744,-0.0836 0.64775,0.39101 0.4149,0.52746 0.88271,0.78997 1.30138,0.73026 0.59806,-0.0853 0.65364,-0.28024 0.65364,-2.29262 0,-2.78399 0.27053,-3.11244 2.14964,-2.60985 1.88217,0.5034 2.21504,0.46974 2.60757,-0.26371 0.26394,-0.49318 0.22964,-0.79947 -0.15535,-1.38704 -0.48986,-0.74762 -0.48676,-0.75235 0.361,-0.55076 1.19292,0.28367 1.79267,0.88043 2.68553,2.67216 1.08123,2.16975 1.03131,3.77541 -0.16417,5.27972 -1.90271,2.39426 -4.34017,3.35433 -6.25939,2.46548 z"
           id="path23"
           transform="scale(0.26458333)" />
        <path
           style="fill:#975d9f;fill-opacity:1;stroke:#ffffff;stroke-width:1.11682;stroke-linecap:round;stroke-linejoin:bevel;stroke-miterlimit:3.1;stroke-dasharray:none;stroke-opacity:1"
           d="m 407.40789,739.21321 c -2.37063,-0.74197 -5.36905,-3.51577 -6.44808,-5.96505 -0.69514,-1.57787 -0.67244,-3.21046 0.0801,-5.7612 0.26555,-0.90007 0.43669,-1.08199 0.82623,-0.87825 0.6781,0.35464 1.66025,-0.0739 2.43937,-1.0644 0.79667,-1.0128 0.85296,-1.96295 0.11885,-2.00599 -1.36886,-0.0802 3.06615,-1.15786 4.82277,-1.17183 1.65857,-0.0132 2.25127,0.13381 3.55558,0.88191 2.63162,1.50938 4.32869,4.04444 4.62418,6.90754 0.20089,1.94641 -0.73033,4.2589 -2.50688,6.22534 -1.83949,2.03608 -5.56616,3.44097 -7.51211,2.83193 z"
           id="path24"
           transform="scale(0.26458333)" />
        <path
           style="fill:#975d9f;fill-opacity:1;stroke:#ffffff;stroke-width:1.11682;stroke-linecap:round;stroke-linejoin:bevel;stroke-miterlimit:3.1;stroke-dasharray:none;stroke-opacity:1"
           d="m 437.48792,659.53659 c -1.33626,-0.66144 -3.13173,-2.53426 -3.13173,-3.26666 0,-0.31748 0.14957,-0.30215 0.68055,0.0698 1.14137,0.79945 1.4629,0.60452 1.4629,-0.88686 0,-0.74994 -0.15965,-1.71393 -0.35479,-2.14221 -0.29667,-0.65113 -0.26172,-0.88152 0.21337,-1.40649 0.4823,-0.53294 0.87138,-0.6141 2.5748,-0.53711 l 2.00664,0.0907 -0.0304,-1.09699 c -0.0276,-0.9959 0.0367,-1.08417 0.69744,-0.95786 1.03278,0.19743 2.48949,2.08887 3.0295,3.93361 0.4173,1.42554 0.41295,1.69098 -0.0466,2.83942 -0.60122,1.50261 -2.56211,3.27781 -4.08929,3.70205 -1.46467,0.40688 -1.51151,0.40158 -3.01244,-0.34137 z"
           id="path25"
           transform="scale(0.26458333)" />
        <path
           style="fill:#975d9f;fill-opacity:1;stroke:#ffffff;stroke-width:1.11682;stroke-linecap:round;stroke-linejoin:bevel;stroke-miterlimit:3.1;stroke-dasharray:none;stroke-opacity:1"
           d="m 315.32895,659.27847 c -0.87804,-0.51188 -1.94594,-1.44504 -2.37311,-2.07369 -0.92162,-1.35628 -1.0115,-1.92066 -0.18705,-1.17455 1.40387,1.27049 2.44585,-0.5611 1.43322,-2.5193 -0.44477,-0.86009 -0.42788,-0.92814 0.43561,-1.75542 0.79586,-0.76249 0.98792,-0.81981 1.684,-0.50266 0.9393,0.42798 2.57106,0.46001 3.19918,0.0628 0.38541,-0.24372 0.35024,-0.4234 -0.23882,-1.22014 -0.68976,-0.93295 -0.68983,-0.93434 -0.0491,-0.93434 1.08894,0 1.78947,0.56992 2.74197,2.23075 1.59532,2.78168 0.97926,5.67101 -1.63418,7.66438 -1.66463,1.26968 -3.10539,1.33355 -5.01175,0.22217 z"
           id="path26"
           transform="scale(0.26458333)" />
        <path
           style="fill:#975d9f;fill-opacity:1;stroke:#ffffff;stroke-width:1.11682;stroke-linecap:round;stroke-linejoin:bevel;stroke-miterlimit:3.1;stroke-dasharray:none;stroke-opacity:1"
           d="m 330.55164,639.99261 c -0.42103,-0.14457 -1.2478,-0.28288 -1.83725,-0.30736 -0.93645,-0.0389 -1.15231,-0.207 -1.71015,-1.3319 -0.35113,-0.70807 -1.1074,-2.16772 -1.6806,-3.24368 -1.32924,-2.49512 -1.38976,-4.58121 -0.20566,-7.08896 0.67793,-1.43576 0.7931,-1.55305 0.81502,-0.82997 0.035,1.15423 0.68108,1.06943 1.83105,-0.24031 1.05805,-1.20505 1.25002,-2.27381 0.41448,-2.30754 -1.09122,-0.044 2.27938,-1.26585 3.90415,-1.41521 4.93624,-0.45377 9.67473,4.46296 9.08664,9.42845 -0.46001,3.88414 -4.10016,7.1791 -8.26755,7.48356 -0.87153,0.0637 -1.92909,-0.003 -2.35013,-0.14708 z"
           id="path27"
           transform="scale(0.26458333)" />
      </g>
      <text
         xml:space="preserve"
         style="font-size:8.46667px;line-height:1.25;font-family:'Mononoki Nerd Font';-inkscape-font-specification:'Mononoki Nerd Font';fill:#000000;fill-opacity:1;stroke:#ffffff;stroke-width:0.264583;stroke-opacity:1"
         x="108.96956"
         y="185.00276"
         id="text1-19"><tspan
           sodipodi:role="line"
           id="tspan1-4"
           style="font-style:normal;font-variant:normal;font-weight:bold;font-stretch:normal;font-size:8.46667px;font-family:'Noto sans';-inkscape-font-specification:'Noto sans';fill:#000000;fill-opacity:1;stroke:none;stroke-width:0.264583;stroke-opacity:1"
           x="108.96956"
           y="185.00276">Node</tspan><tspan
           sodipodi:role="line"
           style="font-style:normal;font-variant:normal;font-weight:bold;font-stretch:normal;font-size:8.46667px;font-family:'Noto sans';-inkscape-font-specification:'Noto sans';fill:#000000;fill-opacity:1;stroke:none;stroke-width:0.264583;stroke-opacity:1"
           x="108.96956"
           y="195.60529"
           id="tspan29">embeddings</tspan></text>
    </g>
    <path
       style="fill:none;stroke:#000000;stroke-width:0.903893;stroke-linecap:round;stroke-linejoin:bevel;stroke-miterlimit:3.1;stroke-dasharray:none;stroke-opacity:1;marker-end:url(#ArrowWide)"
       d="m 68.337973,28.130694 v 8.96153"
       id="path29" />
    <path
       style="fill:none;stroke:#000000;stroke-width:0.903893;stroke-linecap:round;stroke-linejoin:bevel;stroke-miterlimit:3.1;stroke-dasharray:none;stroke-opacity:1;marker-end:url(#ArrowWide)"
       d="m 68.337973,100.64577 v 8.96153"
       id="path32" />
    <g
       id="g32"
       transform="translate(-36.693237,-0.17284282)">
      <rect
         style="fill:#de8687;fill-opacity:1;stroke:#ffffff;stroke-width:0.394;stroke-dasharray:none;stroke-opacity:1"
         id="rect32"
         width="113.71249"
         height="21.27524"
         x="48.174965"
         y="110.77797"
         ry="4.4017735" />
      <text
         xml:space="preserve"
         style="font-size:8.46667px;line-height:1.25;font-family:'Mononoki Nerd Font';-inkscape-font-specification:'Mononoki Nerd Font';fill:#000000;fill-opacity:1;stroke:#ffffff;stroke-width:0.264583;stroke-opacity:1"
         x="104.54014"
         y="123.61692"
         id="text32"><tspan
           sodipodi:role="line"
           id="tspan32"
           style="font-style:normal;font-variant:normal;font-weight:bold;font-stretch:normal;font-size:8.46667px;font-family:'Noto sans';-inkscape-font-specification:'Noto sans';text-align:center;text-anchor:middle;fill:#000000;fill-opacity:1;stroke:none;stroke-width:0.264583;stroke-opacity:1"
           x="104.54014"
           y="123.61692"><tspan
   style="font-style:italic;font-variant:normal;font-weight:bold;font-stretch:normal;font-family:'Noto sans';-inkscape-font-specification:'Noto sans Bold Italic'"
   id="tspan3">N</tspan>-D Graph embeddings</tspan></text>
    </g>
    <g
       id="g2"
       transform="translate(-14.616514,31.903544)">
      <rect
         style="fill:#c26d93;fill-opacity:1;stroke:#ffffff;stroke-width:0.308959;stroke-dasharray:none;stroke-opacity:1"
         id="rect2"
         width="69.644203"
         height="21.360279"
         x="48.132442"
         y="110.73546"
         ry="4.4193683" />
      <text
         xml:space="preserve"
         style="font-size:8.46667px;line-height:1.25;font-family:'Mononoki Nerd Font';-inkscape-font-specification:'Mononoki Nerd Font';fill:#000000;fill-opacity:1;stroke:#ffffff;stroke-width:0.264583;stroke-opacity:1"
         x="51.217232"
         y="123.61693"
         id="text2"><tspan
           sodipodi:role="line"
           id="tspan2"
           style="font-style:normal;font-variant:normal;font-weight:bold;font-stretch:normal;font-size:8.46667px;font-family:'Noto sans';-inkscape-font-specification:'Noto sans';fill:#000000;fill-opacity:1;stroke:none;stroke-width:0.264583;stroke-opacity:1"
           x="51.217232"
           y="123.61693">2-D Projections</tspan></text>
    </g>
    <path
       style="fill:none;stroke:#000000;stroke-width:0.903893;stroke-linecap:round;stroke-linejoin:bevel;stroke-miterlimit:3.1;stroke-dasharray:none;stroke-opacity:1;marker-end:url(#ArrowWide)"
       d="m 68.337973,132.60456 v 8.96153"
       id="path2" />
  </g>
</svg>
