<?xml version="1.0" encoding="UTF-8" standalone="no"?>
<!-- Created with Inkscape (http://www.inkscape.org/) -->

<svg
   width="45.368793mm"
   height="49.152866mm"
   viewBox="0 0 45.368793 49.152866"
   version="1.1"
   id="svg1"
   inkscape:version="1.4 (e7c3feb100, 2024-10-09)"
   sodipodi:docname="unit-cell.svg"
   xmlns:inkscape="http://www.inkscape.org/namespaces/inkscape"
   xmlns:sodipodi="http://sodipodi.sourceforge.net/DTD/sodipodi-0.dtd"
   xmlns="http://www.w3.org/2000/svg"
   xmlns:svg="http://www.w3.org/2000/svg">
  <sodipodi:namedview
     id="namedview1"
     pagecolor="#ffffff"
     bordercolor="#666666"
     borderopacity="1.0"
     inkscape:showpageshadow="2"
     inkscape:pageopacity="0.0"
     inkscape:pagecheckerboard="0"
     inkscape:deskcolor="#d1d1d1"
     inkscape:document-units="mm"
     inkscape:zoom="0.66649802"
     inkscape:cx="86.271825"
     inkscape:cy="93.023533"
     inkscape:window-width="1290"
     inkscape:window-height="1331"
     inkscape:window-x="26"
     inkscape:window-y="23"
     inkscape:window-maximized="0"
     inkscape:current-layer="layer1" />
  <defs
     id="defs1" />
  <g
     inkscape:label="Layer 1"
     inkscape:groupmode="layer"
     id="layer1"
     transform="translate(-82.285417,-123.8247)">
    <path
       style="fill:#000000;stroke-width:0.552939"
       d="m 98.978199,172.41269 c -0.297522,-0.31276 -0.581937,-0.7736 -0.632034,-1.02409 l -0.09109,-0.45544 h -5.8556 c -5.270101,0 -5.8556,0.0234 -5.8556,0.23408 0,0.12874 -0.223837,0.45791 -0.497415,0.73149 -0.42305,0.42305 -0.599114,0.49741 -1.177654,0.49741 -0.879899,0 -1.444943,-0.30145 -1.74322,-0.93002 -0.487909,-1.0282 -0.144533,-2.11549 0.799646,-2.53206 l 0.570463,-0.25169 v -5.82378 -5.82379 h -0.311904 c -0.424939,0 -1.228654,-0.51666 -1.58736,-1.02042 -0.381882,-0.5363 -0.422277,-2.44995 -0.0645,-3.05562 0.266375,-0.45093 0.97977,-0.95183 1.561444,-1.09634 l 0.402321,-0.0999 v -5.77404 -5.77404 l -0.500666,-0.2092 c -0.867895,-0.36263 -1.286077,-1.37396 -0.967397,-2.33957 0.256716,-0.77786 0.769052,-1.11263 1.702782,-1.11263 h 0.780455 l 0.739206,-1.09545 0.739206,-1.09546 -0.405576,-0.61287 c -0.554698,-0.8382 -0.570194,-2.12892 -0.0352,-2.93164 0.57455,-0.86207 1.281903,-1.17958 2.492003,-1.11861 l 1.015096,0.0512 0.726272,-1.09117 c 0.681734,-1.02426 0.711525,-1.10748 0.485797,-1.3569 -0.29841,-0.32974 -0.338152,-1.53329 -0.06736,-2.03985 0.28198,-0.52749 0.925059,-0.85198 1.688451,-0.85198 0.537728,0 0.767641,0.0881 1.184391,0.45405 0.284424,0.24973 0.517135,0.5789 0.517135,0.7315 0,0.26777 0.204154,0.27744 5.855599,0.27744 h 5.8556 l 0.0923,-0.46175 c 0.0508,-0.25397 0.3454,-0.71481 0.65469,-1.02409 0.47962,-0.47963 0.65378,-0.5614 1.1841,-0.55592 l 0.62177,0.006 -0.58519,0.21083 c -0.32186,0.11595 -0.61812,0.21282 -0.65835,0.21526 -0.0402,0.002 0.0239,0.0658 0.14247,0.1408 0.18175,0.11494 0.16029,0.19524 -0.1367,0.51137 -0.23049,0.24534 -0.38725,0.31849 -0.45335,0.21153 -0.12101,-0.19581 -0.27811,0.0154 -0.51646,0.69428 -0.13788,0.39276 -0.10962,0.57048 0.19145,1.20395 0.43378,0.91267 1.03293,1.36019 1.93745,1.4471 0.83678,0.0804 1.44101,-0.19696 1.98619,-0.91172 0.88928,-1.16591 0.50557,-2.68739 -0.84785,-3.36182 -0.74004,-0.36878 -0.74411,-0.37442 -0.26974,-0.37442 0.68592,0 1.29178,0.41095 1.62711,1.10366 0.15922,0.3289 0.28949,0.67597 0.28949,0.77126 0,0.13058 1.43706,0.17326 5.8342,0.17326 h 5.83419 l 0.18897,-0.4562 c 0.52307,-1.2628 2.65333,-1.34963 3.28207,-0.13379 0.51736,1.00045 0.0909,2.30869 -0.86517,2.65442 l -0.52218,0.18882 v 5.82256 5.82255 h 0.30925 c 0.52543,0 1.39654,0.59248 1.72168,1.17098 0.38225,0.68013 0.41724,1.99651 0.0723,2.72328 -0.27521,0.57997 -0.87242,1.04638 -1.59544,1.24602 l -0.50785,0.14022 v 5.77651 c 0,5.37274 0.0179,5.78223 0.25602,5.85833 1.00453,0.32105 1.43304,1.00176 1.31119,2.08287 -0.11096,0.98444 -0.71135,1.48359 -1.78451,1.48359 h -0.79788 l -0.74181,1.09932 -0.7418,1.09931 0.38111,0.49967 c 0.83164,1.09035 0.56356,2.91085 -0.55185,3.74759 -0.4119,0.30899 -0.6389,0.35824 -1.68804,0.36629 l -1.21216,0.009 -0.65315,0.97363 c -0.35924,0.5355 -0.65316,1.034 -0.65316,1.10779 0,0.0738 0.0984,0.32274 0.21855,0.55322 0.45034,0.86348 0.12558,2.06231 -0.67014,2.47379 -0.75231,0.38904 -1.83677,0.22524 -2.35596,-0.35583 -0.22606,-0.253 -0.41101,-0.55771 -0.41101,-0.67714 0,-0.18836 -0.77405,-0.21714 -5.84032,-0.21714 h -5.84032 l -0.0981,0.44678 c -0.054,0.24572 -0.34526,0.70657 -0.64732,1.02409 -0.4585,0.48198 -0.64352,0.57678 -1.12046,0.5741 l -0.57127,-0.003 0.60218,-0.27346 c 0.75039,-0.34077 1.37538,-1.14068 1.47572,-1.88874 0.16303,-1.21549 -0.99312,-2.51292 -2.23926,-2.51292 -0.73954,0 -1.481694,0.28239 -1.199885,0.45656 0.23289,0.14393 -0.374896,0.83391 -0.709824,0.80581 -0.34239,-0.0287 -0.599485,0.89233 -0.417581,1.49599 0.212315,0.70459 0.932352,1.46665 1.61086,1.70488 l 0.5852,0.20547 -0.64443,0.006 c -0.5623,0.006 -0.713349,-0.066 -1.185363,-0.56224 z m -13.224334,-0.80656 c 0.363985,-0.36398 0.497414,-0.62645 0.497414,-0.97846 0,-0.50654 -0.538405,-1.44739 -0.82925,-1.44909 -0.094,-5.6e-4 -0.291503,-0.0389 -0.438897,-0.0852 -0.250277,-0.0786 -0.251067,-0.0733 -0.01196,0.0804 0.276297,0.17765 0.339377,0.52019 0.120687,0.65534 -0.07444,0.046 -0.300826,0.008 -0.503091,-0.0839 -0.49246,-0.22438 -0.923086,0.14528 -0.685781,0.58869 0.157776,0.2948 0.06942,0.74554 -0.146135,0.74554 -0.06729,0 -0.224835,-0.14631 -0.350094,-0.32514 -0.339743,-0.48506 -0.286596,0.0135 0.057,0.53473 0.621429,0.94269 1.537641,1.06955 2.290107,0.31709 z m 32.046245,0.2156 c 0.6518,-0.39744 0.88184,-1.14841 0.55973,-1.82721 -0.27006,-0.5691 -0.3864,-0.677 -1.02011,-0.94615 l -0.4389,-0.1864 0.32917,0.3098 c 0.18104,0.1704 0.32917,0.36603 0.32917,0.43475 0,0.23863 -0.48186,0.30809 -0.78868,0.11367 -0.26445,-0.16756 -0.3421,-0.16063 -0.54327,0.0485 -0.20159,0.20962 -0.20722,0.29648 -0.0399,0.61591 0.16546,0.31577 0.16225,0.39894 -0.0213,0.55127 -0.17084,0.1418 -0.26216,0.14122 -0.4356,-0.003 -0.3248,-0.26955 -0.26613,0.0475 0.0934,0.50451 0.54879,0.69767 1.24128,0.83225 1.97631,0.38406 z M 98.327478,169.8725 c 0.258277,-1.19269 1.190615,-1.86531 2.585552,-1.86531 0.813,0 1.03139,0.0602 1.5307,0.4219 0.56415,0.40866 1.07078,1.20589 1.07078,1.68496 0,0.21046 0.58692,0.23392 5.85194,0.23392 5.26007,0 5.85194,-0.0236 5.85194,-0.23344 0,-0.37724 0.54237,-1.03001 1.0203,-1.22797 l 0.44269,-0.18338 v -4.9564 -4.9564 h -2.56022 c -2.28923,0 -2.56023,0.0257 -2.56023,0.24317 0,0.13374 -0.16365,0.52242 -0.36368,0.86374 -0.63896,1.0903 -2.21202,1.55266 -3.38647,0.99534 -0.61804,-0.29328 -1.31068,-1.10925 -1.42445,-1.67808 l -0.0848,-0.42417 h -5.8556 c -5.67999,0 -5.855596,0.008 -5.855596,0.28134 0,0.15474 -0.202567,0.48391 -0.450149,0.73149 -0.396183,0.39619 -0.549652,0.45038 -1.280114,0.45204 l -0.829962,0.002 -0.708929,1.08967 -0.70893,1.08966 0.342154,0.48051 c 0.262298,0.36836 0.353844,0.71968 0.392238,1.50525 0.04314,0.8827 0.0027,1.09384 -0.291568,1.52333 -0.627102,0.91517 -1.031812,1.10872 -2.358418,1.12794 l -1.190965,0.0173 -0.706865,1.04594 c -0.667932,0.98832 -0.694418,1.0637 -0.480889,1.36856 0.124287,0.17744 0.225976,0.43964 0.225976,0.58267 0,0.24485 0.341228,0.26004 5.840318,0.26004 h 5.840318 z m 0.963035,-0.95094 c 0.181976,-0.23204 0.176802,-0.23722 -0.05524,-0.0552 -0.140812,0.11043 -0.256022,0.22564 -0.256022,0.25602 0,0.12041 0.120138,0.0429 0.311258,-0.20079 z m -13.304467,-0.80465 c 1.103604,-1.66962 1.035086,-1.44833 0.632101,-2.04138 -0.752234,-1.10701 -0.606261,-2.5105 0.361796,-3.47856 0.639222,-0.63922 1.551717,-0.87563 2.476643,-0.64164 l 0.525306,0.13289 0.746593,-1.1003 0.746592,-1.1003 -0.289227,-0.55501 c -0.501269,-0.96192 -0.106681,-2.12938 0.855602,-2.53144 l 0.500666,-0.2092 v -5.78048 -5.78049 l -0.424177,-0.0848 c -0.57707,-0.11541 -1.470145,-0.87812 -1.715328,-1.46492 -0.271688,-0.65024 -0.25389,-1.72584 0.03876,-2.34256 0.289905,-0.61093 1.006795,-1.1849 1.637489,-1.31104 0.424499,-0.0849 0.463252,-0.14008 0.463252,-0.65956 v -0.56691 h -2.999121 c -2.822849,0 -2.99912,0.0159 -2.99912,0.27124 0,0.34407 -0.606719,1.00525 -1.091635,1.18962 l -0.37135,0.14119 v 5.75337 5.75338 l 0.706343,0.29842 c 0.956356,0.40405 1.483248,1.11675 1.589955,2.15065 0.139987,1.35634 -0.663867,2.58584 -1.84509,2.82209 l -0.451208,0.0902 v 5.82146 c 0,4.52028 0.04087,5.83796 0.182873,5.89526 0.10058,0.0406 0.190011,0.079 0.198735,0.0853 0.0087,0.006 0.24432,-0.33408 0.523547,-0.75652 z m 32.913664,-1.98933 c -0.53499,-0.70248 -0.61273,-1.96087 -0.17676,-2.86143 0.48023,-0.99204 1.1234,-1.33035 2.52916,-1.33035 h 1.13271 l 0.66777,-0.99532 0.66776,-0.99533 -0.26433,-0.57361 -0.26435,-0.57361 -2.96255,-0.004 -2.96254,-0.004 v 4.96342 c 0,4.60937 0.0183,4.9672 0.25602,5.01637 0.18211,0.0377 0.47167,-0.26544 1.00307,-1.04994 l 0.74704,-1.10288 z m -28.870344,0.31388 c 0.757148,-0.56078 1.081993,-1.21021 1.016149,-2.03149 -0.08596,-1.07225 -0.686571,-1.86642 -1.585805,-2.09689 -0.67908,-0.17404 -1.358582,-0.10331 -1.715795,0.1786 -0.127486,0.10061 -0.138979,0.18119 -0.03501,0.24545 0.09481,0.0586 0.0095,0.23219 -0.220227,0.44798 -0.286023,0.2687 -0.402725,0.30748 -0.491772,0.16339 -0.168774,-0.27308 -0.522524,0.64961 -0.505146,1.31758 0.01236,0.47496 0.384546,1.20072 0.851943,1.66128 0.571278,0.56291 1.997846,0.62352 2.685663,0.1141 z m 32.331504,-0.0473 c 0.66838,-0.49416 1.10124,-1.45588 0.97953,-2.17631 -0.13256,-0.78462 -0.95554,-1.71987 -1.68663,-1.91673 -0.60678,-0.16339 -1.81594,0.0385 -1.99836,0.33366 -0.0517,0.0837 -0.0225,0.10717 0.0656,0.0528 0.32751,-0.20241 0.36274,0.254 0.0398,0.51552 -0.40562,0.32845 -0.65386,0.34782 -0.53645,0.0418 0.0479,-0.12487 0.031,-0.1924 -0.0374,-0.15007 -0.22373,0.13828 -0.49663,1.38737 -0.40414,1.84983 0.13056,0.6528 0.82724,1.55319 1.33669,1.72756 0.69433,0.23763 1.71523,0.11098 2.24147,-0.27809 z m -35.066839,-3.6171 c 0.181976,-0.23204 0.176801,-0.23721 -0.05523,-0.0552 -0.140813,0.11043 -0.256022,0.22564 -0.256022,0.25602 0,0.12041 0.120138,0.0429 0.311258,-0.20079 z m 22.613489,-2.24511 c 0.73634,-0.35645 1.36081,-1.28567 1.36081,-2.02487 0,-1.02499 -0.8751,-2.09347 -1.87903,-2.29426 -0.4728,-0.0946 -1.72287,0.17486 -1.86295,0.40151 -0.0423,0.0685 0.0252,0.0854 0.15007,0.0374 0.30596,-0.1174 0.28659,0.13083 -0.0418,0.53645 -0.26152,0.32296 -0.71794,0.28774 -0.51552,-0.0398 0.0544,-0.088 0.0309,-0.11723 -0.0528,-0.0655 -0.23501,0.14524 -0.4872,1.33981 -0.38779,1.83688 0.10706,0.53527 0.83531,1.39067 1.44443,1.69659 0.59585,0.29926 1.03495,0.27849 1.78461,-0.0844 z M 93.840182,159.518 c 0.769729,-0.76973 0.572527,-1.89665 -0.421889,-2.41088 -0.575079,-0.29738 -0.639944,-0.27498 -0.271259,0.0937 0.290863,0.29086 0.294792,0.32213 0.05718,0.4551 -0.170291,0.0953 -0.374562,0.0884 -0.614249,-0.0208 -0.49248,-0.22439 -0.873572,0.12067 -0.631931,0.57218 0.08877,0.16587 0.120414,0.43071 0.07032,0.58854 -0.07377,0.2324 -0.144839,0.25818 -0.373852,0.13562 -0.155525,-0.0832 -0.282773,-0.25874 -0.282773,-0.39002 0,-0.13127 -0.04383,-0.19485 -0.09739,-0.14129 -0.05357,0.0536 0.0616,0.41145 0.255928,0.7953 0.346297,0.68402 0.368229,0.69872 1.102861,0.739 0.671288,0.0368 0.797302,-0.007 1.207058,-0.41642 z m 32.182318,0.0731 c 0.8769,-0.73785 0.67624,-1.93826 -0.42198,-2.52446 -0.59123,-0.31557 -0.81943,-0.25165 -0.28752,0.0805 0.16093,0.1005 0.2926,0.24097 0.2926,0.31214 0,0.22339 -0.44744,0.31273 -0.75144,0.15003 -0.21381,-0.11442 -0.34999,-0.10726 -0.51163,0.0269 -0.21015,0.17442 -0.20789,0.34963 0.0113,0.87929 0.12447,0.30072 -0.3151,0.49226 -0.59555,0.25951 -0.30266,-0.25118 -0.24166,0.0109 0.12826,0.55116 0.35197,0.51401 0.50575,0.59109 1.23232,0.61765 0.30135,0.011 0.61841,-0.11275 0.90361,-0.35273 z m -19.63916,-1.78822 c 0.27554,-1.17022 1.30788,-1.93845 2.60487,-1.93845 1.24348,0 2.29857,0.78714 2.51665,1.87752 l 0.0927,0.46326 h 2.54193 2.54195 v -0.5852 c 0,-0.44098 -0.0582,-0.58519 -0.23611,-0.58519 -0.44064,0 -1.38625,-0.64495 -1.70733,-1.16447 -0.23579,-0.38152 -0.32028,-0.75038 -0.32194,-1.40552 -0.003,-1.1798 0.48173,-1.94994 1.52996,-2.43082 l 0.73542,-0.33738 v -5.73621 -5.73621 l -0.53461,-0.25369 c -0.36734,-0.17431 -0.60764,-0.42773 -0.76807,-0.81001 l -0.23347,-0.55634 -5.7922,-0.001 -5.79222,-0.002 -0.17302,0.57751 c -0.18864,0.62962 -0.88697,1.41833 -1.44295,1.62972 -0.5996,0.22796 -1.66843,0.1502 -2.328694,-0.16943 -0.638397,-0.30904 -1.11985,-0.91488 -1.2997,-1.63548 l -0.100414,-0.40239 h -2.544365 -2.544364 v 0.56891 c 0,0.53606 0.03004,0.57455 0.520204,0.6665 1.410633,0.26464 2.263008,2.25011 1.582048,3.68513 -0.293278,0.61803 -1.109252,1.31068 -1.678076,1.42444 l -0.424176,0.0848 v 5.7805 5.78049 l 0.492923,0.20596 c 0.536975,0.22436 0.970062,0.73653 0.970062,1.14721 0,0.24485 0.341597,0.26004 5.849152,0.26004 h 5.84916 z m -2.4089,-6.04808 c -0.81566,-0.24826 -1.62492,-0.87647 -2.04118,-1.58453 -0.33297,-0.56638 -0.39378,-0.83928 -0.39378,-1.76707 0,-0.92779 0.0608,-1.20068 0.39378,-1.76706 0.73686,-1.2534 2.2859,-1.93563 3.66967,-1.61622 1.00494,0.23197 1.63009,0.64762 2.19287,1.45803 0.44343,0.63854 0.47341,0.76077 0.47341,1.92997 0,1.19601 -0.0217,1.27845 -0.518,1.96942 -0.84256,1.17298 -2.48294,1.77126 -3.77677,1.37746 z m 2.31378,-0.62444 c 0.40356,-0.20071 0.84995,-0.59951 1.17039,-1.04562 0.46689,-0.64999 0.51796,-0.81547 0.51752,-1.67682 -4.3e-4,-0.83858 -0.0584,-1.03918 -0.47342,-1.63738 -1.08382,-1.56231 -2.87493,-1.93737 -4.40776,-0.92299 -1.25418,0.82998 -1.65573,2.69204 -0.86909,4.03012 0.61898,1.05289 1.98382,1.81036 2.97108,1.64892 0.2414,-0.0395 0.73247,-0.21777 1.09128,-0.39623 z m 17.16476,6.50004 c 0.16962,-0.36822 0.43911,-0.65163 0.76806,-0.80773 l 0.50676,-0.24048 v -5.77652 c 0,-5.37425 -0.0179,-5.78194 -0.25602,-5.8544 -1.34015,-0.40768 -2.01388,-1.28342 -2.00697,-2.60878 0.004,-0.69572 0.083,-1.00602 0.36574,-1.43029 0.3654,-0.54824 1.2281,-1.14061 1.66115,-1.14061 0.21332,0 0.2361,-0.56303 0.2361,-5.83629 0,-4.88305 -0.0336,-5.84921 -0.20596,-5.91533 -0.13651,-0.0524 -0.453,0.29501 -0.93857,1.03026 l -0.73261,1.1093 0.3502,0.52919 c 0.44065,0.66587 0.56542,1.27966 0.43581,2.14397 -0.0799,0.53322 -0.23682,0.81333 -0.73375,1.31025 -0.70993,0.70993 -1.53229,0.9377 -2.52212,0.69856 l -0.55401,-0.13385 -0.74387,1.10162 -0.74388,1.10161 0.2867,0.48592 c 0.21343,0.36173 0.26775,0.65405 0.21256,1.1437 -0.0842,0.74703 -0.40734,1.18114 -1.09626,1.47269 l -0.47546,0.20122 v 5.77404 5.77404 l 0.40231,0.0947 c 0.68466,0.16121 1.27721,0.60287 1.61486,1.20365 0.4368,0.77718 0.44299,2.03924 0.0137,2.80297 -0.32513,0.5785 -1.19625,1.17098 -1.72168,1.17098 -0.26327,0 -0.30925,0.087 -0.30925,0.58519 v 0.5852 l 2.96254,-0.004 2.96255,-0.004 z m -31.623693,-0.26641 c 0.181975,-0.23204 0.176801,-0.23721 -0.05523,-0.0552 -0.140813,0.11043 -0.256023,0.22564 -0.256023,0.25602 0,0.12041 0.120138,0.0429 0.311259,-0.20079 z m -6.062532,-0.86408 c 1.240782,-0.58879 1.672334,-2.27723 0.855697,-3.3479 -0.52057,-0.6825 -1.523256,-1.14969 -2.170548,-1.01134 -0.555916,0.11882 -0.863941,0.33838 -0.744907,0.53099 0.111556,0.18049 -0.364349,0.70569 -0.639463,0.70569 -0.141909,0 -0.18007,-0.085 -0.114957,-0.25602 0.06101,-0.16026 0.04697,-0.2013 -0.03753,-0.10972 -0.196076,0.21248 -0.46753,1.08299 -0.46753,1.49928 0,1.04551 1.185588,2.23133 2.230894,2.23133 0.317739,0 0.807494,-0.10904 1.088344,-0.24231 z m 32.377025,-0.0675 c 1.11684,-0.62771 1.47499,-1.99851 0.81594,-3.12309 -0.32139,-0.54842 -0.51576,-0.69188 -1.69059,-1.2478 -0.26323,-0.12456 -1.6944,0.44293 -1.46874,0.58239 0.20637,0.12755 0.0476,0.53883 -0.25244,0.65397 -0.12816,0.0492 -0.27948,0.0142 -0.33628,-0.0777 -0.0603,-0.0975 -0.20696,0.10441 -0.3524,0.48522 -0.73469,1.92378 1.46465,3.7498 3.28451,2.72699 z M 94.136001,144.18359 c 0.749054,-0.59748 1.073769,-1.283 0.974794,-2.05795 -0.197307,-1.54485 -1.837287,-2.48366 -3.22702,-1.84731 -0.241393,0.11053 -0.356603,0.20631 -0.256023,0.21285 0.462892,0.0301 -0.165714,0.81175 -0.655341,0.81492 -0.329683,0.002 -0.543518,0.77867 -0.41054,1.49087 0.117543,0.62952 1.139781,1.73146 1.714898,1.8486 0.612806,0.12481 1.354665,-0.0595 1.859232,-0.46198 z m 32.214799,0.0498 c 1.40404,-0.90615 1.30135,-3.03769 -0.18663,-3.87398 -0.67868,-0.38144 -1.29992,-0.40719 -2.05814,-0.0853 -0.5264,0.22348 -0.79734,0.46155 -0.31433,0.2762 0.3715,-0.14256 0.19243,0.38945 -0.224,0.66553 -0.34371,0.22786 -0.35264,0.22481 -0.26972,-0.0922 0.0471,-0.18035 0.0621,-0.3279 0.0331,-0.3279 -0.0569,0 -0.41786,0.78222 -0.56412,1.22262 -0.15447,0.46511 0.19446,1.39025 0.7241,1.9199 0.86057,0.86056 1.82877,0.9605 2.85968,0.29517 z m -35.106708,-3.54743 c 0.181977,-0.23204 0.176802,-0.23721 -0.05524,-0.0552 -0.140813,0.11043 -0.256023,0.22564 -0.256023,0.25602 0,0.12041 0.120138,0.0429 0.311259,-0.20078 z m 10.408158,-0.17013 c 0.55599,-0.21138 1.25432,-1.0001 1.44295,-1.62971 0.49346,-1.64703 -1.16507,-3.25002 -2.86903,-2.77294 -0.36809,0.10306 -0.710652,0.25436 -0.761243,0.33622 -0.05059,0.0819 -0.02052,0.10467 0.06681,0.0507 0.307087,-0.18979 0.332485,0.19206 0.03271,0.49183 -0.306628,0.30663 -0.671913,0.27203 -0.492969,-0.0467 0.06497,-0.11572 0.04802,-0.12446 -0.05132,-0.0265 -0.08157,0.0805 -0.249102,0.45103 -0.372285,0.82347 -0.21767,0.65814 -0.213074,0.69895 0.163428,1.45146 0.576476,1.15218 1.795639,1.71956 2.840949,1.32213 z M 85.227901,139.7716 c 0.0677,0 0.325647,-0.20257 0.573229,-0.45015 0.525112,-0.52512 0.599671,-1.22697 0.197506,-1.8592 -0.3127,-0.49159 -0.474859,-0.61153 -0.830696,-0.61439 -0.26503,-0.002 -0.2663,0.0115 -0.02589,0.27711 0.24063,0.26589 0.238464,0.2839 -0.04495,0.37385 -0.163765,0.052 -0.430401,0.0235 -0.592525,-0.0633 -0.233736,-0.12509 -0.350696,-0.10183 -0.56487,0.11235 -0.238232,0.23823 -0.24583,0.30665 -0.0644,0.5799 0.140868,0.21216 0.161991,0.38791 0.06702,0.55762 -0.127145,0.22719 -0.164665,0.22183 -0.451001,-0.0645 -0.392262,-0.39227 -0.398758,-0.23644 -0.0163,0.39087 0.302356,0.49592 1.087269,0.94862 1.434948,0.82761 0.107162,-0.0373 0.250225,-0.0678 0.317918,-0.0678 z m 32.185709,0 c 0.0677,0 0.32083,-0.16637 0.56248,-0.3697 0.61628,-0.51857 0.70994,-1.09004 0.29862,-1.82189 -0.18179,-0.32345 -0.37885,-0.58809 -0.43792,-0.58809 -0.0591,0 -0.21918,-0.0429 -0.35582,-0.0953 -0.21159,-0.0812 -0.22461,-0.0508 -0.0878,0.20483 0.2001,0.37387 -0.0999,0.53424 -0.62548,0.33441 -0.43451,-0.1652 -0.88844,0.23231 -0.66634,0.58353 0.17714,0.28013 0.18073,0.87445 0.006,0.87445 -0.0747,0 -0.23931,-0.10346 -0.36575,-0.2299 -0.28648,-0.28648 -0.29235,-0.16894 -0.018,0.36151 0.22771,0.44035 1.05394,0.9318 1.37282,0.81658 0.10716,-0.0387 0.25024,-0.0704 0.31795,-0.0704 z m -24.871492,-6.71409 c 0,-5.80257 0.0059,-5.78209 -1.169309,-4.04046 -0.402915,0.59709 -0.732573,1.11859 -0.732573,1.15888 0,0.0403 0.170369,0.32307 0.378597,0.62838 0.335423,0.49181 0.372843,0.67197 0.328143,1.57985 -0.06121,1.24324 -0.398071,1.79886 -1.378298,2.27338 -0.558215,0.27023 -0.819496,0.30917 -1.571689,0.23424 l -0.902172,-0.0899 -0.689778,1.05538 c -0.643039,0.98387 -0.675257,1.07755 -0.47547,1.38246 0.117869,0.17989 0.214308,0.42814 0.214308,0.55167 0,0.19462 0.40022,0.22459 2.99912,0.22459 h 2.999121 z m 5.774338,4.55618 c 0.17985,-0.7206 0.661303,-1.32643 1.2997,-1.63548 1.584654,-0.76712 3.426304,0.0194 3.829664,1.63548 l 0.10041,0.40232 h 5.82022 5.82023 l 0.086,-0.34283 c 0.0473,-0.18856 0.26094,-0.51773 0.4747,-0.73149 0.33004,-0.33004 0.51482,-0.38866 1.22504,-0.38866 h 0.83638 l 0.69389,-1.04353 0.6939,-1.04352 -0.39741,-0.78545 c -0.33378,-0.65971 -0.3874,-0.92365 -0.33496,-1.6487 0.11689,-1.61574 1.15194,-2.44586 2.89425,-2.3212 l 0.97282,0.0696 0.68662,-1.04927 0.68662,-1.04926 -0.25645,-0.61015 -0.25645,-0.61015 -5.79708,-0.002 -5.79709,-0.001 -0.0926,0.46325 c -0.11821,0.59103 -0.71506,1.37596 -1.26091,1.65823 -0.56522,0.29229 -1.94892,0.27998 -2.58744,-0.023 -0.54286,-0.2576 -1.13443,-1.03175 -1.29612,-1.69614 l -0.0979,-0.4024 h -5.83608 c -5.660943,0 -5.836081,0.008 -5.836081,0.28138 0,0.38962 -0.654557,1.13058 -1.096808,1.24158 l -0.366177,0.0919 v 4.97136 4.97137 h 2.544364 2.544365 z M 83.782865,137.1748 c 0.181976,-0.23204 0.176802,-0.23722 -0.05523,-0.0552 -0.140811,0.11043 -0.256022,0.22564 -0.256022,0.25602 0,0.12041 0.120138,0.0429 0.311258,-0.20079 z m 6.26982,-3.01677 c 2.334377,-1.54482 0.347833,-5.05139 -2.247404,-3.96703 -0.501574,0.20957 -0.776941,0.4494 -0.310464,0.27039 0.282711,-0.10848 0.279434,0.0889 -0.0083,0.49974 -0.283434,0.40466 -0.563842,0.42444 -0.461359,0.0326 0.11876,-0.45414 -0.003,-0.34673 -0.288159,0.25425 -0.386006,0.81345 -0.312227,1.55857 0.230571,2.32864 0.253263,0.35931 0.422705,0.71441 0.376537,0.78911 -0.04616,0.0747 0.0018,0.10397 0.106533,0.065 0.104759,-0.0389 0.387975,-0.008 0.629367,0.0688 0.624413,0.1986 1.344998,0.0739 1.972673,-0.34153 z m 32.213855,0.0358 c 1.25723,-0.89523 1.44602,-2.45984 0.42057,-3.4853 -0.17092,-0.17092 -0.28028,-0.36008 -0.24301,-0.42037 0.0373,-0.0603 -0.0426,-0.11861 -0.17754,-0.12961 -0.13491,-0.011 -0.5174,-0.0657 -0.84999,-0.12148 -0.68955,-0.1157 -1.83476,0.17475 -1.50139,0.38079 0.15541,0.0961 0.1266,0.19593 -0.13764,0.4772 -0.18379,0.19564 -0.4413,0.34724 -0.57222,0.33687 -0.31178,-0.0247 -0.54155,0.75503 -0.41743,1.41658 0.14956,0.79723 0.85079,1.65039 1.50278,1.82839 0.7066,0.1929 1.45875,0.0851 1.97587,-0.28307 z m -2.78682,-3.60251 c 0.18197,-0.23204 0.17679,-0.23721 -0.0552,-0.0552 -0.14082,0.11043 -0.25603,0.22564 -0.25603,0.25602 0,0.12041 0.12014,0.0429 0.31127,-0.20079 z M 92.738441,127.7003 c 0.613708,-0.001 0.765223,-0.0653 1.133814,-0.47778 0.62999,-0.70508 0.596414,-1.4615 -0.09169,-2.06567 -0.554119,-0.48652 -1.002359,-0.63051 -0.616452,-0.19803 0.199567,0.22366 0.201554,0.2807 0.01571,0.45117 -0.177751,0.16305 -0.268279,0.15874 -0.550543,-0.0262 -0.302621,-0.19829 -0.361684,-0.19747 -0.566977,0.008 -0.16771,0.16771 -0.194054,0.32152 -0.09823,0.57355 0.136726,0.35962 0.04951,0.78582 -0.160811,0.78582 -0.06729,0 -0.23093,-0.14812 -0.363639,-0.32917 l -0.241289,-0.32917 0.10351,0.36575 c 0.05693,0.20116 0.237274,0.51194 0.400764,0.69063 0.258893,0.28295 0.270884,0.35737 0.09291,0.5767 -0.177509,0.21875 -0.175525,0.23372 0.0151,0.11401 0.120696,-0.0758 0.538214,-0.13854 0.927817,-0.13943 z m 33.018239,-0.14715 c 0.43419,-0.22452 0.873,-0.88512 0.873,-1.31421 0,-0.42909 -0.43881,-1.08969 -0.873,-1.31421 -0.54918,-0.284 -0.67041,-0.28146 -0.38098,0.008 0.12645,0.12644 0.2299,0.28398 0.2299,0.35009 0,0.23703 -0.46831,0.29379 -0.75679,0.0917 -0.25654,-0.17968 -0.3268,-0.175 -0.54985,0.0366 -0.21494,0.20393 -0.22767,0.30093 -0.0798,0.60836 0.18179,0.37797 0.14166,0.7315 -0.083,0.7315 -0.0706,0 -0.2719,-0.14813 -0.44728,-0.32918 -0.27746,-0.28643 -0.26623,-0.23043 0.0865,0.43122 0.49128,0.92147 1.12217,1.1444 1.98132,0.70012 z m -18.41974,-2.96007 c 0.18197,-0.23204 0.1768,-0.23721 -0.0552,-0.0552 -0.14082,0.11043 -0.25603,0.22564 -0.25603,0.25602 0,0.12041 0.12014,0.0429 0.31126,-0.20078 z"
       id="path2"
       sodipodi:nodetypes="cscsssssscccsssscccssscccssscssssssscssscscsssssssssssscssscccsssscscsscccssscssssssscssccsssscssccccssscsssssssscsscssscsscscccsssssscccssssscsssccccsscscssssccssssssssscccsscccssssscssscccssscssssscsscccccccsssccssssssssssscssscccsssccsssssssssssssssssssssssssssscsssssssssssssssscccssssscccsscccsssscccsssscccssscsssssssssssssssssscscsccssssscsssscccssscccsssssccccsssssssssssssssssssssssssssscssscssssssssccsssssssssssssssssssscssssssssssscsssssssssssccssssssscsssscsssscccssscccssscccccccsssscssscccccssssssssssscsssssssssssssssssssssssssssssssscsssssssssssssssssssssss" />
  </g>
</svg>
